<?xml version="1.0" encoding="utf-8"?>
<!-- Generator: Adobe Illustrator 18.0.0, SVG Export Plug-In . SVG Version: 6.00 Build 0)  -->
<!DOCTYPE svg PUBLIC "-//W3C//DTD SVG 1.1//EN" "http://www.w3.org/Graphics/SVG/1.1/DTD/svg11.dtd">
<svg version="1.1" id="Layer_1" xmlns="http://www.w3.org/2000/svg" xmlns:xlink="http://www.w3.org/1999/xlink" x="0px" y="0px"
	 viewBox="0 0 382 149.5" enable-background="new 0 0 382 149.5" xml:space="preserve">
<g>
	<polyline fill="#074DA0" points="183.1,31.4 183.1,29.8 187.2,29.8 187.2,16 176.3,16 176.3,29.8 180.5,29.8 180.5,31.4 
		165.5,31.4 165.5,29.8 169.3,29.8 169.3,1.6 165.5,1.6 165.5,0.1 180.5,0.1 180.5,1.6 176.3,1.6 176.3,14.1 187.2,14.1 187.2,1.6 
		183.1,1.6 183.1,0.1 198,0.1 198,1.6 194.1,1.6 194.1,29.8 198,29.8 198,31.4 	"/>
	<path fill="#074DA0" d="M204.1,0.1h6.8v3.7h-6.8 M200.7,31.4v-1.5h3.7V10.4h-3.7V8.8h10.4v21.1h3.5v1.5H200.7z"/>
	<polyline fill="#074DA0" points="216,31.4 216,29.8 219.8,29.8 219.8,1.5 216,1.5 216,0 226.6,0 226.6,29.8 230.2,29.8 230.2,31.4 
			"/>
	<path fill="#074DA0" d="M240.8,31.4c-3.1,0-5.7-1.4-5.7-4.8V10.3h-3.7V8.8h3.7V0.1h6.3v8.7h5.2v1.5h-5.2v19.5h5.3v1.5"/>
	<path fill="#074DA0" d="M260.4,9.7c5.8,0,5.3,5.9,5.3,10v1.4c0.1,3.9,0,9.6-5.3,9.6c-2,0-3.5-0.8-4.5-2.5c-1-1.8-0.9-6.3-0.9-8.3
		C255,15.9,254.8,9.7,260.4,9.7 M273,20.6c0-7.3-5.4-12.3-12.6-12.3c-6.9,0-12.9,4.5-12.9,11.8c0,7.5,5.9,12,13.1,12
		C267.4,32,273,27.6,273,20.6"/>
	<path fill="#074DA0" d="M291.4,31.4v-1.5h3V16.2c0-2.5,0-5.6-3.3-5.6c-2.6,0-5,2.5-5.7,4.9c-0.3,1.1-0.2,2.3-0.2,3.4v11h3.5v1.5
		h-13.8v-1.5h3.6V10.4h-3.6V8.8h10.4v3.5c1.4-1.6,2.3-2.5,4.3-3.3c1.3-0.5,2.7-0.8,4.1-0.8c1,0,2.1,0.2,3.1,0.4
		c3.7,1.1,4.6,3.5,4.6,6.9v14.4h3.6v1.5"/>
	<path fill="#074DA0" d="M198.9,71.4v11.1c-4.7,5.5-9.5,7.8-16.9,7.8c-12.9,0-19.5-9.6-19.5-21.6c0-7.1,1.9-13.3,7.3-18.1
		c3.8-3.4,8.8-4.9,13.8-4.9c3.5,0,6.2,1,9.1,2.7l2.8-2.1h1.5v12h-2.5c-1.2-6.7-2.5-10.5-10.3-10.5c-4.8,0-8.4,2-9.7,6.7
		c-1.2,4.1-1.4,8.7-1.4,12.9c0,4.1,0.2,8.3,0.8,12.3c0.7,4.9,2.9,8.7,8.5,8.7c2.4,0,4-0.3,5.6-2.1c1.1-1.2,1.4-2,1.4-3.6V71.4H183
		v-2.5h19.9v2.5"/>
	<path fill="#074DA0" d="M223.3,73.1v5.7c0,2.2-0.2,4.2-2.1,5.7c-0.9,0.7-2.1,1.2-3.2,1.2c-3.2,0-5.1-2.4-5.1-5.4
		C212.9,74.2,218.4,73.4,223.3,73.1 M236.9,89.4v-2.1H232V67.2c0-4.1-0.9-6.4-4.9-8.1c-2.2-1-5-1.4-7.4-1.4c-4.8,0-13,2-13,8.1
		c0,2.4,1.8,4.1,4.1,4.1c2.4,0,4.2-1.8,4.2-4.2c0-1.7-1.5-2.8-1.5-3.9c0-1.6,3.4-2.1,4.5-2.1c4.3,0,5.2,1.7,5.2,5.6v5.8
		c-4.8,0.5-10.8,1-14.8,4c-2.5,1.8-4.2,4.5-4.2,7.7c0,5.1,3.9,7.4,8.7,7.4c4.3,0,7.8-1.9,10.6-5.1c0.3,0.7,0.6,1.5,1,2.1
		c1.6,2.1,5.1,2.2,7.5,2.2H236.9z"/>
	<path fill="#074DA0" d="M263.5,68.7c-2.5,0-4.7-1.7-4.7-4.3c0-1.9,1.3-3,1.3-3.5c0-0.5-0.6-0.7-1.1-0.7c-1,0-2.8,2.4-3.3,3
		c-2.2,2.8-3,6.6-3,10.1v13.9h6.1v2.1h-20.4v-2.1h5V60.7h-5v-2.1h14.3v5.6c2.3-3.6,4.4-6.5,9.2-6.5c3.6,0,6.4,2.4,6.4,6.1
		C268.4,66.7,266.4,68.7,263.5,68.7"/>
	<path fill="#074DA0" d="M286.5,60.2c2.7,0,5.1,2.2,6.2,4.4c1.3,2.6,1.3,6.7,1.3,9.6c0,2.2-0.1,5.8-0.9,8c-1.1,2.6-3.7,5.6-6.8,5.6
		c-6.1,0-6.4-9.6-6.4-13.9C280,69.5,280.2,60.2,286.5,60.2 M308,89.3v-2.1h-4.9V45.8h-14.3v2.1h4.9v14.7c-2.6-3.1-5.3-4.8-9.4-4.8
		c-2.1,0-4.1,0.6-5.9,1.5c-5.6,3-8.2,8.9-8.2,15.1c0,8.7,5.4,15.9,14.4,15.9c4.6,0,6.6-1.9,9.1-5.5v4.6H308z"/>
	<path fill="#074DA0" d="M329.6,69.9h-11.2c0.1-4.9-0.7-10.4,6-10.4c4.1,0,5.2,2.6,5.2,6.1 M339.3,72c-0.6-3.9-1.2-6.8-4-9.7
		c-2.8-3-6.9-4.5-11-4.5c-9.4,0-16.3,6.8-16.3,16.1c0,9.8,7.3,16.4,16.9,16.4c6.9,0,10.9-3.5,14-9.3l-1.8-0.9c-2.7,4.3-5.7,8-11.2,8
		c-7.2,0-7.7-6.7-7.7-12.2V72H339.3z"/>
	<path fill="#074DA0" d="M363.5,89.4v-2.1h4.1V68.6c0-3.4,0-7.6-4.5-7.6c-3.5,0-6.8,3.4-7.7,6.7c-0.4,1.5-0.3,3.1-0.3,4.7v15h4.7
		v2.1H341v-2.1h5V60.7h-5v-2.1h14.2v4.7c1.9-2.2,3.2-3.5,5.9-4.6c1.8-0.7,3.7-1.1,5.6-1.1c1.4,0,2.8,0.2,4.2,0.6
		c5.1,1.5,6.3,4.7,6.3,9.5v19.7h4.9v2.1"/>
	<polyline fill="#074DA0" points="165.5,149.5 165.5,147.4 170.6,147.4 170.6,108.8 165.5,108.8 165.5,106.7 185.4,106.7 
		185.4,108.8 180.3,108.8 180.3,147.4 185.4,147.4 185.4,149.5 	"/>
	<path fill="#074DA0" d="M210.1,149.5v-2.1h4.1v-18.8c0-3.4,0-7.6-4.5-7.6c-3.5,0-6.9,3.5-7.7,6.7c-0.4,1.5-0.3,3.2-0.3,4.7v15h4.7
		v2.1h-18.9v-2.1h5v-26.7h-5v-2.1h14.2v4.7c1.9-2.2,3.2-3.4,5.9-4.6c1.8-0.7,3.7-1.2,5.6-1.2c1.4,0,2.9,0.2,4.2,0.6
		c5,1.4,6.2,4.7,6.2,9.5v19.7h4.9v2.1"/>
	<path fill="#074DA0" d="M252.6,149.5v-2.1h4.1v-18.8c0-3.4,0-7.6-4.5-7.6c-3.5,0-6.9,3.5-7.7,6.7c-0.3,1.5-0.3,3.2-0.3,4.7v15h4.7
		v2.1h-18.9v-2.1h5v-26.7h-5v-2.1h14.2v4.7c1.9-2.2,3.1-3.4,5.9-4.6c1.8-0.7,3.7-1.2,5.6-1.2c1.4,0,2.9,0.2,4.2,0.6
		c5,1.4,6.2,4.7,6.2,9.5v19.7h4.9v2.1"/>
	<path fill="#074DA0" d="M274.4,127.9c-2.5,0-4.3-1.8-4.3-4.3c0-2.5,1.8-4.3,4.3-4.3c2.5,0,4.3,1.8,4.3,4.3
		C278.6,126.1,276.8,127.9,274.4,127.9 M274.4,128.7c2.8,0,5.1-2.3,5.1-5.1c0-2.8-2.3-5.1-5.1-5.1c-2.8,0-5.1,2.3-5.1,5.1
		C269.2,126.4,271.5,128.7,274.4,128.7 M273.2,123.9h1.2l1.7,2.6h0.8l-1.7-2.6c1-0.1,1.8-0.5,1.8-1.7c0-1-0.5-1.6-2-1.6h-2.5v5.8
		h0.8V123.9z M273.2,123.2v-1.9h1.6c0.7,0,1.4,0.1,1.4,0.9c0,1.1-1.2,1-2,1H273.2z"/>
	<rect x="0" y="0" fill="#CF3551" width="150.3" height="148.7"/>
	<path fill="#FFFFFF" d="M27.8,25.3c-1.9,0.1-3.5,1.7-3.4,3.6c0.1,1.9,1.7,3.5,3.6,3.4c1.9-0.1,3.5-1.7,3.4-3.6
		C31.4,26.7,29.8,25.2,27.8,25.3"/>
	<path fill="#FFFFFF" d="M57.8,21.2c-10.2-9.2-17.5-9.4-33-10.3c0,0-7.7-0.9-13.4-2c-1.1-0.2-2.8-0.3-3.1,0.1
		c-0.5,0.3-0.3,2-0.2,3.1c1,5.8,2,13.4,2,13.4c0.8,15.5,1,22.7,10.2,33c0,0,25.2,26.9,44.7,7.4c0,0,1.4-1.6,1-3
		c-0.7-2.2-13.7-14.8-18.7-19.9c-5.1-5.2-11.1-9.9-12.4-10.2c-0.2-0.1-0.5-0.1-0.8,0c-1.1,0.3-1.8,1.6-1.8,1.6
		c-0.1,0.2-0.4,0.6-0.1,1.3c0.9,1.9,3.9,5.9,10.3,12.2c6.7,6.7,15.8,14.9,15.8,14.9c-11.4,8.8-28.7-5.3-28.7-5.3
		c-11.2-9.4-14.6-27.7-13.8-40.9c13.2-0.8,31.6,2.6,40.9,13.8c0,0,9.4,12.4,7.5,23.1c-0.1,0.4,0.1,0.6,0.2,0.8
		c1.7,2.4,4.7,2.7,7,0.6c0.2-0.2,0.2-0.2,0.4-0.6C75.2,37.7,57.8,21.2,57.8,21.2"/>
	<path fill="#FFFFFF" d="M123.2,28.6c-0.1-1.9-1.7-3.5-3.6-3.4c-1.9,0.1-3.4,1.7-3.4,3.6c0.1,1.9,1.7,3.5,3.6,3.4
		C121.7,32.1,123.3,30.5,123.2,28.6"/>
	<path fill="#FFFFFF" d="M127.2,58.5c9.2-10.2,9.4-17.5,10.3-33c0,0,0.9-7.7,2-13.4c0.2-1.1,0.3-2.8-0.1-3.1c-0.3-0.5-2-0.3-3.1-0.1
		c-5.8,1-13.5,1.9-13.5,1.9c-15.5,0.8-22.7,1-33,10.2c0,0-26.9,25.1-7.4,44.7c0,0,1.6,1.4,2.9,1C87.6,66,100.2,53,105.3,48
		c5.2-5.1,9.9-11.1,10.2-12.4c0-0.2,0.1-0.5,0-0.8c-0.3-1.1-1.6-1.8-1.6-1.8c-0.2-0.1-0.6-0.4-1.3-0.1c-1.9,0.9-5.8,3.9-12.2,10.3
		C93.8,49.8,85.6,59,85.6,59c-8.8-11.4,5.3-28.7,5.3-28.7c9.4-11.2,27.7-14.6,40.9-13.7c0.8,13.2-2.6,31.6-13.8,40.9
		c0,0-12.4,9.4-23.1,7.4c-0.3,0-0.6,0.1-0.8,0.2c-2.4,1.7-2.7,4.7-0.6,7c0.2,0.2,0.3,0.2,0.6,0.4C110.8,75.9,127.2,58.5,127.2,58.5"
		/>
	<path fill="#FFFFFF" d="M119.9,123.9c1.9,0,3.4-1.7,3.4-3.6c-0.1-1.9-1.7-3.5-3.6-3.4c-1.9,0.1-3.5,1.7-3.4,3.6
		C116.3,122.5,117.9,124,119.9,123.9"/>
	<path fill="#FFFFFF" d="M90,128c10.2,9.2,17.5,9.4,33,10.3c0,0,7.7,0.9,13.4,2c1.1,0.2,2.8,0.3,3.1-0.1c0.5-0.3,0.3-2,0.1-3.1
		c-1-5.8-2-13.4-2-13.4c-0.8-15.5-1-22.7-10.2-33c0,0-25.1-26.9-44.7-7.4c0,0-1.4,1.6-1,3c0.7,2.2,13.7,14.8,18.7,19.9
		c5.1,5.2,11.1,9.9,12.4,10.2c0.2,0,0.5,0.1,0.8,0c1.1-0.2,1.8-1.5,1.8-1.5c0.1-0.2,0.3-0.6,0.1-1.3c-0.9-1.9-3.9-5.8-10.2-12.2
		c-6.7-6.7-15.8-14.9-15.8-14.9c11.4-8.8,28.7,5.3,28.7,5.3c11.2,9.4,14.6,27.7,13.7,40.9c-13.2,0.8-31.6-2.6-40.9-13.8
		c0,0-9.4-12.4-7.4-23.1c0-0.4-0.1-0.6-0.2-0.8c-1.7-2.4-4.7-2.7-7-0.6c-0.2,0.2-0.2,0.3-0.4,0.6C72.5,111.5,90,128,90,128"/>
	<path fill="#FFFFFF" d="M24.5,120.6c0,1.9,1.7,3.5,3.6,3.4c1.9-0.1,3.5-1.7,3.4-3.6c-0.1-1.9-1.7-3.5-3.6-3.4
		C26,117.1,24.5,118.7,24.5,120.6"/>
	<path fill="#FFFFFF" d="M20.5,90.7c-9.2,10.2-9.4,17.4-10.3,33c0,0-0.9,7.6-2,13.4c-0.2,1.1-0.3,2.8,0.1,3.1c0.3,0.5,2,0.3,3.1,0.1
		c5.8-1,13.5-1.9,13.5-1.9c15.5-0.8,22.7-1,33-10.2c0,0,26.9-25.1,7.4-44.7c0,0-1.6-1.4-3-1c-2.2,0.7-14.8,13.7-19.9,18.7
		c-5.2,5.1-9.9,11.1-10.2,12.4c-0.1,0.2-0.1,0.5,0,0.8c0.3,1.1,1.5,1.8,1.5,1.8c0.2,0.1,0.6,0.3,1.3,0c1.9-0.9,5.9-3.9,12.2-10.2
		c6.7-6.7,14.9-15.8,14.9-15.8c8.8,11.4-5.3,28.7-5.3,28.7c-9.4,11.2-27.7,14.6-40.9,13.8c-0.8-13.2,2.6-31.6,13.8-40.9
		c0,0,12.4-9.4,23.1-7.4c0.3,0.1,0.6-0.1,0.8-0.2c2.4-1.7,2.7-4.7,0.6-7c-0.2-0.2-0.2-0.1-0.6-0.4C36.9,73.3,20.5,90.7,20.5,90.7"/>
</g>
</svg>
