<?xml version="1.0" encoding="utf-8"?>
<!-- Generator: Adobe Illustrator 18.0.0, SVG Export Plug-In . SVG Version: 6.00 Build 0)  -->
<!DOCTYPE svg PUBLIC "-//W3C//DTD SVG 1.1//EN" "http://www.w3.org/Graphics/SVG/1.1/DTD/svg11.dtd">
<svg version="1.1" id="Layer_1" xmlns="http://www.w3.org/2000/svg" xmlns:xlink="http://www.w3.org/1999/xlink" x="0px" y="0px"
	 viewBox="0 0 474.2 70.6" enable-background="new 0 0 474.2 70.6" xml:space="preserve">
<polygon points="292.9,1.5 272.4,33.5 251.7,1.5 237.5,1.5 237.5,69.1 250,69.1 250,21.5 272.3,56.1 294.7,21.5 294.7,69.1 
	307.2,69.1 307.2,1.5 "/>
<polygon points="461.9,1.5 461.9,50.4 423.5,1.5 410,1.5 410,69.1 422.3,69.1 422.3,20 460.7,69.1 474.2,69.1 474.2,1.5 "/>
<path d="M205.4,23.4c0-6.2-4.4-9.8-11.4-9.8h-20.2v19.6h21C201.9,33.2,205.4,29.8,205.4,23.4 M218.6,23.4
	c0,19.4-15.5,21.9-24.8,21.9h-20v23.8h-12.5V1.5h33.2C205.6,1.5,218.6,7.4,218.6,23.4"/>
<path d="M378.7,69.1h14L365.1,1.5h-12.9l-27.6,67.7h14l5.7-15.1H373L378.7,69.1z M358.7,16.5l9.7,25.5h-19.4L358.7,16.5z"/>
<polygon points="65.7,13.6 39.1,13.6 39.1,69.1 26.6,69.1 26.6,13.6 0,13.6 0,1.5 65.7,1.5 "/>
<path d="M107.6,13.3c-12.6,0-22.8,9.6-22.8,22.2c0,12.6,10.2,23.1,22.8,23.1c12.6,0,22.8-10.5,22.8-23.1
	C130.4,22.8,120.2,13.3,107.6,13.3 M107.6,70.6c-19.5,0-35.3-15.8-35.3-35.3C72.3,15.8,88.1,0,107.6,0c19.5,0,35.3,15.8,35.3,35.3
	C142.9,54.8,127.1,70.6,107.6,70.6"/>
</svg>
