<?xml version="1.0" encoding="utf-8"?>
<!-- Generator: Adobe Illustrator 18.1.1, SVG Export Plug-In . SVG Version: 6.00 Build 0)  -->
<svg version="1.1" id="Layer_1" xmlns="http://www.w3.org/2000/svg" xmlns:xlink="http://www.w3.org/1999/xlink" x="0px" y="0px"
	 viewBox="-147 229 24 24" enable-background="new -147 229 24 24" xml:space="preserve">
<path fill="#fff" d="M-132.8,243.2l-8.2,3.8l3.8-8.2l8.2-3.8 M-135,231c-5.5,0-10,4.5-10,10s4.5,10,10,10s10-4.5,10-10
	S-129.5,231-135,231 M-135,239.9c-0.6,0-1.1,0.5-1.1,1.1l0,0c0,0.6,0.5,1.1,1.1,1.1l0,0c0.6,0,1.1-0.5,1.1-1.1l0,0
	C-133.9,240.4-134.4,239.9-135,239.9L-135,239.9z"/>
</svg>
